<svg width="72" height="72" viewBox="0 0 72 72" fill="none" xmlns="http://www.w3.org/2000/svg">
<path d="M60 12.7128V6C59.9958 2.688 57.312 0.0042 54 0H6C2.688 0.0042 0.0042 2.688 0 6V32.4C0.00930002 35.4645 2.3322 38.0274 5.3808 38.3382L9.8916 50.0475C11.0832 53.1393 14.5554 54.6795 17.6475 53.4894L45.816 42.6384C43.8696 47.7225 44.4234 53.4258 47.3106 58.0407L48 59.1432V70.8C48 71.463 48.537 72 49.2 72H70.8C71.463 72 72 71.463 72 70.8V31.1895C71.9886 27.0396 70.3365 23.0634 67.4025 20.1285L60 12.7128ZM60 19.8894L63.642 29.3436C64.3557 31.1994 63.4308 33.2817 61.5753 33.996L59.4936 34.8C59.826 34.0434 59.9982 33.2256 60 32.4V19.8894ZM2.4 32.4V6C2.4 4.0122 4.0122 2.4 6 2.4H54C55.9878 2.4 57.6 4.0122 57.6 6V13.6272H57.5895L57.6 13.6545V32.4C57.5907 32.6094 57.5634 32.817 57.5184 33.0216L46.5264 22.0284C44.0556 19.6146 40.1166 19.596 37.6236 21.9846C35.13 24.3747 34.9803 28.3107 37.2864 30.8817L41.9724 36H6C4.0122 36 2.4 34.3878 2.4 32.4ZM17.7732 38.4L9.24 41.6853L7.9776 38.4H17.7732ZM16.7844 51.2493C14.9292 51.9645 12.8457 51.0396 12.1308 49.1844L10.1064 43.92L24.4308 38.4V38.3928H44.172L45.7317 40.0932L16.7844 51.2493ZM69.6 69.6H50.4V60H69.6V69.6ZM69.6 57.6H49.866L49.3455 56.7684C46.4196 52.0926 46.3032 46.1868 49.0416 41.4C49.3008 40.947 49.2372 40.3782 48.8844 39.9936L39.0507 29.2656C37.5843 27.6606 37.6668 25.1793 39.2367 23.676C40.8072 22.1724 43.2897 22.197 44.8293 23.7306L63.9516 42.8484L65.6484 41.1516L61.2084 36.7116L62.4396 36.2316C65.529 35.0397 67.0686 31.5705 65.88 28.4793L61.8183 17.9325L65.7057 21.828C68.1897 24.3114 69.5904 27.6768 69.6 31.1895V57.6Z" fill="black"/>
<path d="M13.68 16.8001C15.4033 16.8001 16.8001 15.4033 16.8001 13.68V7.92005C16.8001 6.19685 15.4033 4.80005 13.68 4.80005H7.92005C6.19685 4.80005 4.80005 6.19685 4.80005 7.92005V13.68C4.80005 15.4033 6.19685 16.8001 7.92005 16.8001H13.68ZM7.20005 13.68V12.0001H9.60005V9.60005H7.20005V7.92005C7.20005 7.52255 7.52255 7.20005 7.92005 7.20005H13.68C14.0775 7.20005 14.4001 7.52255 14.4001 7.92005V9.60005H12.0001V12.0001H14.4001V13.68C14.4001 14.0775 14.0775 14.4001 13.68 14.4001H7.92005C7.52255 14.4001 7.20005 14.0775 7.20005 13.68Z" fill="black"/>
<path d="M6 20.4H10.8V22.8H6V20.4Z" fill="black"/>
<path d="M6 27.6H10.8V30H6V27.6Z" fill="black"/>
<path d="M27.6 27.6H32.4V30H27.6V27.6Z" fill="black"/>
<path d="M13.2 20.4H18V22.8H13.2V20.4Z" fill="black"/>
<path d="M20.4 20.4H25.2V22.8H20.4V20.4Z" fill="black"/>
<path d="M27.6 20.4H32.4V22.8H27.6V20.4Z" fill="black"/>
<path d="M50.4 6H52.8V9.6H50.4V6Z" fill="black"/>
<path d="M45.6 6H48V9.6H45.6V6Z" fill="black"/>
<path d="M40.8 6H43.2001V9.6H40.8V6Z" fill="black"/>
<path d="M36 6H38.4V9.6H36V6Z" fill="black"/>
<path d="M52.8 62.4H55.2V64.8H52.8V62.4Z" fill="black"/>
</svg>
