<svg width="159" height="41" viewBox="0 0 159 41" fill="none" xmlns="http://www.w3.org/2000/svg">
<path d="M51.904 37V17.12H60.864C61.7973 17.12 62.656 17.316 63.44 17.708C64.2427 18.1 64.9333 18.6133 65.512 19.248C66.0907 19.8827 66.5387 20.6013 66.856 21.404C67.192 22.2067 67.36 23.0187 67.36 23.84C67.36 24.456 67.2853 25.0533 67.136 25.632C66.9867 26.192 66.772 26.724 66.492 27.228C66.212 27.732 65.8667 28.1893 65.456 28.6C65.064 28.992 64.616 29.328 64.112 29.608L68.48 37H63.3L59.492 30.588H56.496V37H51.904ZM56.496 26.584H60.696C61.2373 26.584 61.704 26.332 62.096 25.828C62.488 25.3053 62.684 24.6427 62.684 23.84C62.684 23.0187 62.46 22.3653 62.012 21.88C61.564 21.3947 61.0787 21.152 60.556 21.152H56.496V26.584Z" fill="#05396B"/>
<path d="M76.9156 37.28C75.6836 37.28 74.573 37.084 73.5836 36.692C72.613 36.2813 71.7823 35.7307 71.0916 35.04C70.4196 34.3493 69.9063 33.556 69.5516 32.66C69.197 31.7453 69.0196 30.7933 69.0196 29.804C69.0196 28.74 69.197 27.7413 69.5516 26.808C69.9063 25.856 70.4196 25.0253 71.0916 24.316C71.7636 23.6067 72.585 23.0467 73.5556 22.636C74.545 22.2253 75.665 22.02 76.9156 22.02C78.1663 22.02 79.277 22.2253 80.2476 22.636C81.2183 23.0467 82.0396 23.6067 82.7116 24.316C83.3836 25.0067 83.8876 25.8093 84.2236 26.724C84.5783 27.6387 84.7556 28.6 84.7556 29.608C84.7556 29.8693 84.7463 30.1307 84.7276 30.392C84.709 30.6347 84.681 30.8493 84.6437 31.036H73.7796C73.8543 32.0253 74.209 32.7813 74.8436 33.304C75.497 33.808 76.2343 34.06 77.0556 34.06C77.709 34.06 78.3343 33.9013 78.9316 33.584C79.5476 33.2667 79.9583 32.8373 80.1636 32.296L83.9716 33.36C83.393 34.5173 82.497 35.46 81.2836 36.188C80.0703 36.916 78.6143 37.28 76.9156 37.28ZM80.0236 28.264C79.9303 27.3307 79.5943 26.5933 79.0156 26.052C78.437 25.5107 77.7183 25.24 76.8596 25.24C75.9823 25.24 75.2543 25.52 74.6756 26.08C74.1156 26.6213 73.789 27.3493 73.6956 28.264H80.0236Z" fill="#05396B"/>
<path d="M85.672 34.312L93.176 25.408H86.064V22.3H97.852V24.988L90.404 33.892H98.048V37H85.672V34.312Z" fill="#05396B"/>
<path d="M104.828 37.28C103.316 37.28 102.168 36.8133 101.384 35.88C100.619 34.928 100.236 33.5373 100.236 31.708V22.3H104.716V30.728C104.716 31.624 104.893 32.3147 105.248 32.8C105.603 33.2667 106.107 33.5 106.76 33.5C107.357 33.5 107.936 33.3413 108.496 33.024C109.056 32.7067 109.551 32.156 109.98 31.372V22.3H114.46V31.96C114.46 32.408 114.525 32.7253 114.656 32.912C114.805 33.08 115.057 33.1827 115.412 33.22V37C114.983 37.0933 114.619 37.1493 114.32 37.168C114.021 37.2053 113.751 37.224 113.508 37.224C111.903 37.224 110.988 36.5987 110.764 35.348L110.68 34.452C110.008 35.4227 109.168 36.1413 108.16 36.608C107.171 37.056 106.06 37.28 104.828 37.28Z" fill="#05396B"/>
<path d="M141.171 37H136.691V28.74C136.691 27.7693 136.513 27.0693 136.159 26.64C135.804 26.192 135.347 25.968 134.787 25.968C134.488 25.968 134.18 26.0333 133.863 26.164C133.564 26.2947 133.284 26.4813 133.023 26.724C132.761 26.948 132.519 27.2187 132.295 27.536C132.089 27.8533 131.921 28.1987 131.791 28.572V37H127.311V28.74C127.311 27.7693 127.133 27.0693 126.779 26.64C126.424 26.192 125.967 25.968 125.407 25.968C124.809 25.968 124.221 26.2107 123.643 26.696C123.083 27.1627 122.672 27.788 122.411 28.572V37H117.931V22.3H121.963V24.764C122.504 23.868 123.232 23.1867 124.147 22.72C125.08 22.2533 126.163 22.02 127.395 22.02C128.011 22.02 128.543 22.0947 128.991 22.244C129.457 22.3933 129.859 22.5987 130.195 22.86C130.531 23.1213 130.801 23.4293 131.007 23.784C131.212 24.12 131.361 24.484 131.455 24.876C132.015 23.9613 132.752 23.2613 133.667 22.776C134.581 22.272 135.627 22.02 136.803 22.02C137.736 22.02 138.483 22.1973 139.043 22.552C139.621 22.888 140.069 23.336 140.387 23.896C140.704 24.4373 140.909 25.0347 141.003 25.688C141.115 26.3413 141.171 26.976 141.171 27.592V37Z" fill="#05396B"/>
<path d="M151.099 37.28C149.848 37.28 148.728 37.0747 147.739 36.664C146.768 36.2533 145.947 35.7027 145.275 35.012C144.603 34.3027 144.089 33.4907 143.735 32.576C143.399 31.6427 143.231 30.672 143.231 29.664C143.231 28.656 143.399 27.6947 143.735 26.78C144.089 25.8467 144.603 25.0347 145.275 24.344C145.947 23.6347 146.768 23.0747 147.739 22.664C148.728 22.2347 149.848 22.02 151.099 22.02C152.349 22.02 153.46 22.2347 154.431 22.664C155.401 23.0747 156.223 23.6347 156.895 24.344C157.567 25.0347 158.08 25.8467 158.435 26.78C158.789 27.6947 158.967 28.656 158.967 29.664C158.967 30.672 158.789 31.6427 158.435 32.576C158.099 33.4907 157.595 34.3027 156.923 35.012C156.251 35.7027 155.42 36.2533 154.431 36.664C153.46 37.0747 152.349 37.28 151.099 37.28ZM147.823 29.664C147.823 30.8213 148.131 31.7547 148.747 32.464C149.363 33.1547 150.147 33.5 151.099 33.5C151.565 33.5 151.995 33.4067 152.387 33.22C152.779 33.0333 153.115 32.772 153.395 32.436C153.693 32.1 153.927 31.6987 154.095 31.232C154.263 30.7467 154.347 30.224 154.347 29.664C154.347 28.5067 154.039 27.5827 153.423 26.892C152.807 26.1827 152.032 25.828 151.099 25.828C150.632 25.828 150.193 25.9213 149.783 26.108C149.391 26.2947 149.045 26.556 148.747 26.892C148.467 27.228 148.243 27.6387 148.075 28.124C147.907 28.5907 147.823 29.104 147.823 29.664Z" fill="#05396B"/>
<g clip-path="url(#clip0)">
<path d="M4.10156 23.1105H36.8984V35.6171C36.8984 36.4557 36.2132 37.1387 35.3801 37.1387H5.61988C4.78678 37.1387 4.10156 36.4557 4.10156 35.6171V23.1105Z" stroke="#10579B" stroke-width="5"/>
<path d="M23 23.1105H36.8984V35.6171C36.8984 36.4557 36.2132 37.1387 35.3801 37.1387H23V23.1105Z" stroke="#05396B" stroke-width="5"/>
<path d="M41 14.3468V21.4121C41 21.9638 40.6244 22.4443 40.0895 22.578L23.1025 26.8117C23.008 26.8358 22.9104 26.8478 22.8127 26.8478H18.1873C18.0896 26.8478 17.992 26.8358 17.8975 26.8117L0.910488 22.578C0.375566 22.4443 0 21.9638 0 21.4121V14.3468C0 12.1286 1.80256 10.3245 4.01832 10.3245H36.9817C39.1974 10.3245 41 12.1286 41 14.3468V14.3468Z" fill="#10579B"/>
<path d="M41 14.3468V21.4121C41 21.9638 40.6244 22.4443 40.0895 22.578L23.1025 26.8117C23.008 26.8358 22.9104 26.8478 22.8127 26.8478H20.5V10.3245H36.9817C39.1974 10.3245 41 12.1286 41 14.3468V14.3468Z" fill="#05396B"/>
<path d="M24.1479 23.7989V27.927C24.1479 28.0484 24.0505 28.162 23.8878 28.2311L21.563 29.2201C21.46 29.264 21.3392 29.2857 21.2193 29.2857C21.0993 29.2857 20.9786 29.264 20.8756 29.2201L18.5507 28.2311C18.3881 28.162 18.2907 28.0484 18.2907 27.927V23.7989C18.2907 23.5945 18.5612 23.4286 18.8945 23.4286H23.5441C23.8774 23.4286 24.1479 23.5945 24.1479 23.7989Z" fill="#05396B"/>
<path d="M24.1479 23.7989V27.927C24.1479 28.0484 24.031 28.162 23.8359 28.2311L21.0461 29.2201C20.9224 29.264 20.7775 29.2857 20.6336 29.2857V23.4286H23.4234C23.8233 23.4286 24.1479 23.5945 24.1479 23.7989Z" fill="#10579B"/>
<path d="M30.0651 11.9908V13.192H27.6628V11.9908C27.6628 10.081 26.1108 8.52664 24.2042 8.52664H16.4038C14.4963 8.52664 12.9452 10.081 12.9452 11.9908V13.192H10.5428V11.9908C10.5428 8.75567 13.1718 6.1243 16.4038 6.1243H24.2042C27.4353 6.1243 30.0651 8.75567 30.0651 11.9908Z" fill="#05396B"/>
</g>
<defs>
<clipPath id="clip0">
<rect width="41" height="41" fill="white"/>
</clipPath>
</defs>
</svg>
